<svg version="1.0" xmlns="http://www.w3.org/2000/svg" width="117" height="40" viewBox="0 0 1123 528"><path d="M45 53.5V56h1029v-5H45v2.5zm6 337v2.5h367v-5H51v2.5zm546 0v2.5h471v-5H597v2.5zm-545.4 58c-1.1 3.8-.6 4.5 1.4 2.5 1.6-1.6 3.3-2 8.5-2H68v21.3c0 15.2-.3 21.6-1.2 22.5-.9.9 0 1.2 4.2 1.2 3.9 0 5.1-.3 4-1-1.3-.8-1.5-4.4-1.5-22.2v-21.3l4-.3c6.2-.5 10.5.6 11.5 3.1.7 1.8.9 1.5.9-1.8l.1-4H71.1c-18.2 0-19 .1-19.5 2zm165.5 8.6c-1 2.4-4.4 11-7.6 19.2-3.6 9.3-6.5 15.3-7.8 16.2-2.1 1.4-2 1.5 1.8 1.5 3.7 0 4-.2 4.1-2.8.1-1.5 1.1-4.8 2.2-7.5l2.1-4.7h6.6c7.3 0 7.3-.1 10.7 10.8 1.3 4.1 1.4 4.2 5.7 4.2 4.3 0 4.3 0 2.2-1.8-1.2-1-5.4-9.6-9.7-20.2-4.2-10.2-7.8-18.7-8-18.9-.2-.2-1.2 1.6-2.3 4zm4.3 12c1.4 3.8 2.6 7.2 2.6 7.5 0 .2-2.5.4-5.5.4s-5.5-.3-5.5-.7c0-1.7 4.5-14.3 5.1-14.3.4 0 1.8 3.2 3.3 7.1zm60-14.4c-.2.7-.6 2.1-.9 3-.6 1.6-.5 1.6 1.3 0 1.3-1.2 3.6-1.7 8-1.7h6.2v17.1c0 9.8-.4 17.8-1 19-1 1.8-.7 1.9 3.7 1.8 2.6 0 4.2-.3 3.6-.6-1-.3-1.3-5.1-1.3-18.9V456h5.4c3.5 0 6 .5 6.9 1.5 1.3 1.3 1.6 1.3 2.1-.1.3-.9.6-2 .6-2.4 0-.5-7.7-1-17.1-1.2-13.1-.2-17.2 0-17.5.9zm74.7-.2c-5.1 1.6-9.5 5.5-12.3 10.9-2.9 5.6-2.2 14.9 1.5 20.5 7.4 11.1 25.4 11.9 34.5 1.5 10.3-11.6 6.1-28.7-8.2-32.9-6-1.8-9.7-1.8-15.5 0zm16.6 3.6c4.8 3.8 6.5 7.5 7.1 15 .6 9.1-2.2 15.3-8.2 18-5.4 2.5-9.2 2.4-14.6-.4-6.5-3.2-9.5-9-9.5-18.2 0-8.3 2.1-12.7 7.5-15.6 5-2.7 13.6-2.2 17.7 1.2zM536 472c0 13.9-.4 20-1.2 20.8-.9.9-.3 1.2 3.1 1.2 3.9 0 4.1-.1 2.7-1.6-1.3-1.3-1.6-4.2-1.6-15.9v-14.4l15.6 15.9c8.7 8.8 16.1 16 16.5 16 .5 0 .9-8.5.9-18.8 0-13.3.4-19.2 1.2-20 .9-.9.2-1.2-3.2-1.2-3.7 0-4.1.2-2.8 1.2 1.3 1.1 1.7 4.2 2.1 16 .3 8.2.3 14.8 0 14.8s-7.8-7.5-16.8-16.8l-16.4-16.7-.1 19.5zm112.1-17.5c-5.1 1.6-9.5 5.5-12.3 10.9-2.9 5.6-2.2 14.9 1.5 20.5 8.9 13.4 31.2 11.3 38.3-3.7 2-4.4 2.3-13.6.4-17.2-2.5-4.9-7.4-9-12.4-10.5-6-1.8-9.7-1.8-15.5 0zm13.3 1.5c3.7 1.4 8.4 6.8 9.6 10.9 1.6 6 1.2 13.1-1.1 17.9-5.4 11.1-22.1 10.4-28.2-1.2-2.9-5.5-3.1-16.7-.3-21.2 3.7-6.1 13-9.1 20-6.4zm241.1-1.8c-5.4 2.9-7 9-3.7 13.9.9 1.4 4.6 5 8.2 8 6.5 5.5 7.7 7.8 6.6 12.3-1.6 6.5-14.6 5.8-16.5-.8-.9-2.9-.9-2.9-1 1.6l-.1 4.7 4.4.6c10.4 1.6 17.9-2.7 17.9-10.3 0-5.4-1.5-7.6-8.5-12.8-3.4-2.5-6.7-5.3-7.4-6.2-1.9-2.5-1.7-6.6.4-8.5 3.3-3 12.6-1.6 13.5 2 .3 1 .5.5.6-1.3.1-2.5-.4-3.3-2.1-3.8-3.6-.9-10.1-.6-12.3.6zm34.5-.5c-2.8 1-5.9 4.5-6.5 7.4-1 4.4 1.9 9 8.9 14.3 7.3 5.5 9.2 8.8 7.7 12.9-2.6 6.8-16 5.5-17.4-1.7-.2-1.1-.5-.2-.6 2.2-.1 3.8.2 4.4 2.7 5.3 3.6 1.4 12.4.5 15.6-1.6 1.5-1 3.1-3.4 3.8-5.6 1.5-5-.4-9.5-5.8-13.6-8.9-6.8-11.4-9.5-11.4-12.4 0-6.7 13-8.4 15.3-1.9.3.8.6.1.6-1.6.1-2-.5-3.4-1.5-3.8-1.9-.7-9.3-.7-11.4.1zm52.1 17.6c-.1 11-.5 19.6-1.1 20.8-1 1.7-.7 1.9 3.2 1.9 3.5 0 3.9-.2 2.6-1.3-1.2-.9-1.7-4.3-2.2-16.2l-.6-15 16.1 16.3c8.9 8.9 16.5 16.2 17 16.2s.9-8.7.9-19.4c0-14.6.3-19.6 1.3-19.9.6-.3-.8-.6-3.3-.6-3.5 0-4.1.2-2.7 1 1.5.9 1.7 2.8 1.7 16.2v15.2l-16.5-17-16.4-17v18.8zm62.4-17.4c-8.4 2.2-13.7 7.5-15.4 15.3-1.9 8.3 1.3 17.1 7.7 21.3 4.8 3.2 13.2 4.9 20 4.1 8.9-1 9.2-1.4 9.2-10.6 0-5.9.4-8.1 1.4-8.7.9-.5-1-.9-4.7-.9-5-.1-5.7.1-3.9.9 2.1 1 2.3 1.6 2 8.5-.3 7.3-.4 7.6-3.2 8.5-1.9.7-4.7.6-8.5-.3-12.7-2.8-19.5-17.3-13.5-29.2 4.6-9 23.5-10.6 28.5-2.4l1.9 3.1v-4.1c0-3-.5-4.4-1.7-4.8-2.8-1.1-16.6-1.6-19.8-.7zm-951.7.8c1.7.7 1.7 36.4 0 38.1-.9.9-.1 1.2 3.7 1.2 3.8 0 4.6-.3 3.7-1.2-.8-.8-1.2-4.6-1.2-10.5V473h24v9.3c0 5.9-.4 9.7-1.2 10.5-.9.9 0 1.2 4.3 1.2 4.1-.1 5-.3 3.7-1.1-1.6-.9-1.8-2.9-1.8-19.4 0-13.7.3-18.5 1.3-18.8.6-.3-1-.6-3.8-.6-3.8-.1-4.6.2-3.7 1.1.7.7 1.2 4.2 1.2 8.5v7.3h-24v-7.9c0-5.4.4-8.1 1.3-8.4.6-.3-1-.5-3.8-.5-2.7 0-4.4.2-3.7.5zm53.2 1.4c.8 1.4 1.1 7.8.8 19-.2 13.7-.6 17.2-1.8 17.9-1 .7 2.3.9 10 .8l11.5-.3.2-3c.1-1.7 0-2.3-.4-1.5-1 2.4-2.5 3-8 3-6.5 0-7.3-1.2-7.3-10.9V474h5.4c3 0 5.8.5 6.1 1 .9 1.4 2.5.2 2.5-1.8 0-1.5-.9-1.7-7-1.4l-7 .4V456h6c5.4 0 6.2.3 7 2.2.6 1.6.9 1.8.9.6.1-.9.4-2.3.7-3.2.5-1.4-.7-1.6-10-1.6-10.5 0-10.7 0-9.6 2.1zm94.8-.9c1.5 1.5 1.7 34 .2 36.9-1 1.8-.7 1.9 3.7 1.9 3.2 0 4.3-.3 3.4-.9-.9-.6-1.6-3.5-1.9-8.5l-.5-7.6h4.5c4.4 0 4.6.1 10.3 7.5 6.5 8.6 7.8 9.5 13.2 9.5h3.8l-3.2-1.6c-1.8-.9-6-5-9.4-9.1l-6.1-7.4 2-2.2c1.2-1.2 2.8-3.9 3.7-6 2.1-5 .6-10.1-3.5-12.2-3.7-1.9-22.1-2.2-20.2-.3zm14.6 1.2c4 1.6 6.2 6.8 5.2 12-1 5-3.5 6.8-9.2 6.4l-4.9-.3-.3-8.9c-.3-9.3.2-10.6 4.1-10.6 1 0 3.3.6 5.1 1.4zm133.4-1.7c.9.3 1.2 5.2 1.2 19.3 0 14.1-.3 19-1.2 19.3-.7.3 1.1.6 4 .6 4.9.1 5.2 0 3.8-1.5-1.2-1.2-1.6-3.6-1.6-10V474h5.3c5.5 0 7.1.6 8 3 .3.8.6-.1.6-2l.1-3.5-7 .3-7 .4V456h6.5c5 0 6.6.4 7.4 1.7.6 1 1.1 1.3 1.1.6 0-.6.3-1.8.6-2.7.5-1.4-.8-1.6-11.2-1.5-6.6 0-11.3.3-10.6.6zM446 456c1.1 1.1 2 2.5 2 3.2 0 2.6 11.2 35.8 11.9 35.4.4-.3 3.4-7.3 6.6-15.6 3.2-8.2 6.1-15 6.5-15 .4 0 3.1 6.4 5.9 14.2 6.5 17.5 6.5 17.7 7.9 15.2.5-1 3.5-9.6 6.7-18.9 3.2-9.4 6.4-17.8 7.3-18.8 1.4-1.6 1.3-1.7-2.1-1.7-2.9 0-3.4.3-3.1 1.8.5 1.7-7.1 28-8.5 29.5-.4.4-2.4-4.1-4.5-10-6.7-18.9-7.8-21.5-8.7-20.6-.4.4-3.5 7.7-6.7 16.2-3.3 8.4-6.2 14.9-6.5 14.5-.9-1.6-7.7-26.2-7.9-28.8-.2-2.4-.6-2.6-4.5-2.6H444l2 2zm66.5 18v20h3.8c3.4 0 3.7-.2 2.7-1.9-1.5-2.9-1.3-35.4.2-36.9.9-.9.3-1.2-2.7-1.2h-4v20zm74.3-19.1c1 .6 1.2 5.1 1 19.9l-.3 19.1 9.1.6c12 .9 18.7-.9 23.7-6.4 4.4-4.9 6-9.9 5.5-16.6-.6-7-3.9-11.8-10.2-15-4.5-2.3-6.2-2.5-17.5-2.5-7 0-12 .4-11.3.9zm25.1 3.9c6.4 3.9 9.4 9.8 8.9 17.9-.4 6.7-2.1 10-7.2 13.7-2.2 1.7-4.2 2.1-10.7 2.1-6 0-8.2-.4-8.9-1.5-1.5-2.4-1.3-34.7.3-35.4 2.9-1.3 13.3.6 17.6 3.2zm71.9-4c.7.5 3.9 9.3 7.2 19.7 3.3 10.3 6.3 19.2 6.8 19.7.6.6 2.8-3.8 5.7-11.4 2.6-6.7 5.5-14.1 6.4-16.3l1.7-4 5.3 14.5c3 8 5.8 15.4 6.4 16.4.9 1.8 1 1.8 1.9.3.5-1 3.6-9.7 6.9-19.5 3.3-9.7 6.7-18.3 7.6-19 1.4-1 1-1.2-2.8-1.2-2.6 0-3.9.4-3.1.8 1 .7.5 3.3-2.2 12.3-1.9 6.3-4.1 13.2-4.9 15.4-1.7 4.7-.8 6.4-8.3-14.7-2.7-7.6-5.2-13.8-5.6-13.8-.4 0-1.5 2.4-2.6 5.2-9.4 25-10.5 27.3-11.4 24.8-2.5-6.8-7.8-27.4-7.4-28.6.4-1.1-.6-1.4-4.2-1.4-2.8 0-4.2.4-3.4.8zm87.6.8c1.3 1.3 1.6 4.2 1.6 16.2 0 8.1-.4 16.3-.9 18.3l-.8 3.7 9.1.7c14.9 1.1 23.4-2.2 27.5-10.7 4.1-8.5 1.9-21-4.5-25.5-5-3.4-9.3-4.3-21.6-4.3-10.9 0-11.8.1-10.4 1.6zm23.7 2.5c2.1 1 5 3.5 6.6 5.5 3.7 4.9 4.5 15.9 1.5 21.4-2.7 4.9-9 8-16.2 8-9.4 0-9.4-.1-9.8-19.6-.3-13 0-16.9 1-17.6 2-1.3 12.6.1 16.9 2.3zM823 456c1.8 3.4 1 35.8-1 37-1.1.7.1 1 3.8 1 4.9 0 5.2-.1 3.8-1.6-1.2-1.1-1.6-3.5-1.6-8.5V477h4.3c4.2 0 4.5.2 9.1 6.5 6 8.3 8.9 10.5 13.5 10.5h3.6l-3.1-1.9c-1.8-1.1-5.7-5.1-8.8-9l-5.7-7 3-4.2c4.1-5.6 4.3-11.4.5-15-2.3-2.1-3.6-2.4-12.6-2.7l-10-.4 1.2 2.2zm16.8 2.4c2.1 2 2.6 3.5 2.6 7.5 0 7.1-2.2 9.3-8.8 8.9l-5.1-.3-.3-8.4c-.2-4.6 0-9.1.3-9.9.9-2.3 8.3-.9 11.3 2.2zm25-3.2c.8.8 1.2 6.4 1.2 18.8s-.4 18-1.2 18.8c-.9.9 1.3 1.2 10 1.2 9 0 11.2-.3 11.2-1.4 0-.8.3-2.3.6-3.3.5-1.3.2-1.2-1.1.5-1.5 2-2.4 2.3-7.8 2l-6.2-.3-.3-8.8-.3-8.7h5.6c4.8 0 5.7.3 6.5 2.2.8 2 .9 1.9.9-1.2l.1-3.5-6.5.3-6.5.4V456h5.3c5.5 0 7.1.6 8 3 .3.8.6 0 .6-1.8l.1-3.2h-10.7c-8.3 0-10.4.3-9.5 1.2zm100-.5c.9.3 1.2 5.2 1.2 19.3 0 14.1-.3 19-1.2 19.3-.7.3 1.1.6 4 .6 4.9.1 5.2 0 3.8-1.5-1.3-1.3-1.6-4.4-1.6-18.8 0-12 .4-17.6 1.2-18.4.9-.9.1-1.2-3.7-1.1-2.8 0-4.4.3-3.7.6z"/></svg>