<svg height="32" viewBox="0 0 512 512" width="32" xmlns="http://www.w3.org/2000/svg"><style/><path d="M434.158 333.092c-9.802-16.148-35.668-23.274-50.215-26.086-26.549-5.13-60.764-4.74-77.348 7.698-5.459 4.097-8.178 12.563-8.813 27.452a153.061 153.061 0 00-.131 5.693c-28.178-10.883-54.189-27.118-76.389-47.683l-9.749-9.694c-20.652-22.044-36.964-47.872-47.903-75.845 1.829-.009 3.76-.046 5.738-.129 14.942-.631 23.439-3.33 27.551-8.75 12.455-16.417 12.906-50.315 7.828-76.626-2.815-14.591-9.979-40.531-26.315-50.335-16.252-9.754-41.371-7.401-51.417-5.935-20.725 3.021-37.967 10.344-46.124 19.586-7.108 8.055-9.605 31.042-10.348 40.55-.02.25-.027.507-.023.758 1.223 77.447 31.015 151.402 83.886 208.214.071.075.143.181.216.254l14.822 14.801c.073.073.147.271.224.339C226.771 409.916 301.107 439 378.965 441h.124c.206 0 .412-.258.618-.273 9.55-.739 32.636-3.469 40.721-10.523 9.302-8.116 16.671-25.277 19.713-45.907 1.474-10.003 3.843-35.015-5.983-51.205zm-9.846 48.87c-2.391 16.212-8.179 30.754-14.396 36.179-2.787 2.297-17.248 5.247-31.076 6.354-73.738-1.243-144.123-29.31-198.244-79.062l-14.6-14.519c-50.022-53.803-78.239-123.763-79.489-197.06 1.105-13.715 4.063-28.065 6.364-30.833 5.469-6.196 20.111-11.958 36.436-14.338 17.123-2.497 32.787-1.033 40.875 3.822 7.804 4.684 15.023 19.876 18.839 39.649 5.008 25.95 2.982 53.224-4.697 63.7-3.101 2.178-17.161 3.345-30.349 2.556a7.965 7.965 0 00-4.484.165 7.97 7.97 0 00-3.32 2.135 7.976 7.976 0 00-2.249 5.007 7.955 7.955 0 001.096 4.646c11.06 32.332 28.753 62.276 51.766 87.73.272.435.59.85.954 1.238a255.927 255.927 0 007.263 7.433 252.036 252.036 0 007.49 7.236c.391.362.808.678 1.244.947 25.59 22.873 55.694 40.465 88.193 51.458a7.923 7.923 0 004.643 1.086 7.959 7.959 0 005.03-2.282c.134-.126.254-.264.38-.399l.104-.118a7.936 7.936 0 001.634-2.791 7.941 7.941 0 00.153-4.473c-.787-13.079.378-27.013 2.556-30.091 10.622-7.701 38.23-9.693 64.483-4.62 19.729 3.813 34.894 10.97 39.572 18.678 4.868 8.022 6.335 23.567 3.829 40.567z" id="layer_copy"/></svg>