
<svg version="1.0" xmlns="http://www.w3.org/2000/svg"
 width="117" height="40" viewBox="0 0 1123.000000 528.000000"
 preserveAspectRatio="xMidYMid meet">

<g transform="translate(0.000000,528.000000) scale(0.100000,-0.100000)"
fill="#000000" stroke="none">
<path d="M450 4745 l0 -25 5145 0 5145 0 0 25 0 25 -5145 0 -5145 0 0 -25z"/>
<path d="M510 1375 l0 -25 1835 0 1835 0 0 25 0 25 -1835 0 -1835 0 0 -25z"/>
<path d="M5970 1375 l0 -25 2355 0 2355 0 0 25 0 25 -2355 0 -2355 0 0 -25z"/>
<path d="M516 795 c-11 -38 -6 -45 14 -25 16 16 33 20 85 20 l65 0 0 -213 c0
-152 -3 -216 -12 -225 -9 -9 0 -12 42 -12 39 0 51 3 40 10 -13 8 -15 44 -15
222 l0 213 40 3 c62 5 105 -6 115 -31 7 -18 9 -15 9 18 l1 40 -189 0 c-182 0
-190 -1 -195 -20z"/>
<path d="M2171 709 c-10 -24 -44 -110 -76 -192 -36 -93 -65 -153 -78 -162 -21
-14 -20 -15 18 -15 37 0 40 2 41 28 1 15 11 48 22 75 l21 47 66 0 c73 0 73 1
107 -108 13 -41 14 -42 57 -42 43 0 43 0 22 18 -12 10 -54 96 -97 202 -42 102
-78 187 -80 189 -2 2 -12 -16 -23 -40z m43 -120 c14 -38 26 -72 26 -75 0 -2
-25 -4 -55 -4 -30 0 -55 3 -55 7 0 17 45 143 51 143 4 0 18 -32 33 -71z"/>
<path d="M2814 733 c-2 -7 -6 -21 -9 -30 -6 -16 -5 -16 13 0 13 12 36 17 80
17 l62 0 0 -171 c0 -98 -4 -178 -10 -190 -10 -18 -7 -19 37 -18 26 0 42 3 36
6 -10 3 -13 51 -13 189 l0 184 54 0 c35 0 60 -5 69 -15 13 -13 16 -13 21 1 3
9 6 20 6 24 0 5 -77 10 -171 12 -131 2 -172 0 -175 -9z"/>
<path d="M3561 735 c-51 -16 -95 -55 -123 -109 -29 -56 -22 -149 15 -205 74
-111 254 -119 345 -15 103 116 61 287 -82 329 -60 18 -97 18 -155 0z m166 -36
c48 -38 65 -75 71 -150 6 -91 -22 -153 -82 -180 -54 -25 -92 -24 -146 4 -65
32 -95 90 -95 182 0 83 21 127 75 156 50 27 136 22 177 -12z"/>
<path d="M5360 560 c0 -139 -4 -200 -12 -208 -9 -9 -3 -12 31 -12 39 0 41 1
27 16 -13 13 -16 42 -16 159 l0 144 156 -159 c87 -88 161 -160 165 -160 5 0 9
85 9 188 0 133 4 192 12 200 9 9 2 12 -32 12 -37 0 -41 -2 -28 -12 13 -11 17
-42 21 -160 3 -82 3 -148 0 -148 -3 0 -78 75 -168 168 l-164 167 -1 -195z"/>
<path d="M6481 735 c-51 -16 -95 -55 -123 -109 -29 -56 -22 -149 15 -205 89
-134 312 -113 383 37 20 44 23 136 4 172 -25 49 -74 90 -124 105 -60 18 -97
18 -155 0z m133 -15 c37 -14 84 -68 96 -109 16 -60 12 -131 -11 -179 -54 -111
-221 -104 -282 12 -29 55 -31 167 -3 212 37 61 130 91 200 64z"/>
<path d="M9025 738 c-54 -29 -70 -90 -37 -139 9 -14 46 -50 82 -80 65 -55 77
-78 66 -123 -16 -65 -146 -58 -165 8 -9 29 -9 29 -10 -16 l-1 -47 44 -6 c104
-16 179 27 179 103 0 54 -15 76 -85 128 -34 25 -67 53 -74 62 -19 25 -17 66 4
85 33 30 126 16 135 -20 3 -10 5 -5 6 13 1 25 -4 33 -21 38 -36 9 -101 6 -123
-6z"/>
<path d="M9370 743 c-28 -10 -59 -45 -65 -74 -10 -44 19 -90 89 -143 73 -55
92 -88 77 -129 -26 -68 -160 -55 -174 17 -2 11 -5 2 -6 -22 -1 -38 2 -44 27
-53 36 -14 124 -5 156 16 15 10 31 34 38 56 15 50 -4 95 -58 136 -89 68 -114
95 -114 124 0 67 130 84 153 19 3 -8 6 -1 6 16 1 20 -5 34 -15 38 -19 7 -93 7
-114 -1z"/>
<path d="M9891 567 c-1 -110 -5 -196 -11 -208 -10 -17 -7 -19 32 -19 35 0 39
2 26 13 -12 9 -17 43 -22 162 l-6 150 161 -163 c89 -89 165 -162 170 -162 5 0
9 87 9 194 0 146 3 196 13 199 6 3 -8 6 -33 6 -35 0 -41 -2 -27 -10 15 -9 17
-28 17 -162 l0 -152 -165 170 -164 170 0 -188z"/>
<path d="M10515 741 c-84 -22 -137 -75 -154 -153 -19 -83 13 -171 77 -213 48
-32 132 -49 200 -41 89 10 92 14 92 106 0 59 4 81 14 87 9 5 -10 9 -47 9 -50
1 -57 -1 -39 -9 21 -10 23 -16 20 -85 -3 -73 -4 -76 -32 -85 -19 -7 -47 -6
-85 3 -127 28 -195 173 -135 292 46 90 235 106 285 24 l19 -31 0 41 c0 30 -5
44 -17 48 -28 11 -166 16 -198 7z"/>
<path d="M998 733 c17 -7 17 -364 0 -381 -9 -9 -1 -12 37 -12 38 0 46 3 37 12
-8 8 -12 46 -12 105 l0 93 120 0 120 0 0 -93 c0 -59 -4 -97 -12 -105 -9 -9 0
-12 43 -12 41 1 50 3 37 11 -16 9 -18 29 -18 194 0 137 3 185 13 188 6 3 -10
6 -38 6 -38 1 -46 -2 -37 -11 7 -7 12 -42 12 -85 l0 -73 -120 0 -120 0 0 79
c0 54 4 81 13 84 6 3 -10 5 -38 5 -27 0 -44 -2 -37 -5z"/>
<path d="M1530 719 c8 -14 11 -78 8 -190 -2 -137 -6 -172 -18 -179 -10 -7 23
-9 100 -8 l115 3 2 30 c1 17 0 23 -4 15 -10 -24 -25 -30 -80 -30 -65 0 -73 12
-73 109 l0 71 54 0 c30 0 58 -5 61 -10 9 -14 25 -2 25 18 0 15 -9 17 -70 14
l-70 -4 0 81 0 81 60 0 c54 0 62 -3 70 -22 6 -16 9 -18 9 -6 1 9 4 23 7 32 5
14 -7 16 -100 16 -105 0 -107 0 -96 -21z"/>
<path d="M2478 728 c15 -15 17 -340 2 -369 -10 -18 -7 -19 37 -19 32 0 43 3
34 9 -9 6 -16 35 -19 85 l-5 76 45 0 c44 0 46 -1 103 -75 65 -86 78 -95 132
-95 l38 0 -32 16 c-18 9 -60 50 -94 91 l-61 74 20 22 c12 12 28 39 37 60 21
50 6 101 -35 122 -37 19 -221 22 -202 3z m146 -12 c40 -16 62 -68 52 -120 -10
-50 -35 -68 -92 -64 l-49 3 -3 89 c-3 93 2 106 41 106 10 0 33 -6 51 -14z"/>
<path d="M3958 733 c9 -3 12 -52 12 -193 0 -141 -3 -190 -12 -193 -7 -3 11 -6
40 -6 49 -1 52 0 38 15 -12 12 -16 36 -16 100 l0 84 53 0 c55 0 71 -6 80 -30
3 -8 6 1 6 20 l1 35 -70 -3 -70 -4 0 81 0 81 65 0 c50 0 66 -4 74 -17 6 -10
11 -13 11 -6 0 6 3 18 6 27 5 14 -8 16 -112 15 -66 0 -113 -3 -106 -6z"/>
<path d="M4460 720 c11 -11 20 -25 20 -32 0 -26 112 -358 119 -354 4 3 34 73
66 156 32 82 61 150 65 150 4 0 31 -64 59 -142 65 -175 65 -177 79 -152 5 10
35 96 67 189 32 94 64 178 73 188 14 16 13 17 -21 17 -29 0 -34 -3 -31 -18 5
-17 -71 -280 -85 -295 -4 -4 -24 41 -45 100 -67 189 -78 215 -87 206 -4 -4
-35 -77 -67 -162 -33 -84 -62 -149 -65 -145 -9 16 -77 262 -79 288 -2 24 -6
26 -45 26 l-43 0 20 -20z"/>
<path d="M5125 540 l0 -200 38 0 c34 0 37 2 27 19 -15 29 -13 354 2 369 9 9 3
12 -27 12 l-40 0 0 -200z"/>
<path d="M5868 731 c10 -6 12 -51 10 -199 l-3 -191 91 -6 c120 -9 187 9 237
64 44 49 60 99 55 166 -6 70 -39 118 -102 150 -45 23 -62 25 -175 25 -70 0
-120 -4 -113 -9z m251 -39 c64 -39 94 -98 89 -179 -4 -67 -21 -100 -72 -137
-22 -17 -42 -21 -107 -21 -60 0 -82 4 -89 15 -15 24 -13 347 3 354 29 13 133
-6 176 -32z"/>
<path d="M6838 732 c7 -5 39 -93 72 -197 33 -103 63 -192 68 -197 6 -6 28 38
57 114 26 67 55 141 64 163 l17 40 53 -145 c30 -80 58 -154 64 -164 9 -18 10
-18 19 -3 5 10 36 97 69 195 33 97 67 183 76 190 14 10 10 12 -28 12 -26 0
-39 -4 -31 -8 10 -7 5 -33 -22 -123 -19 -63 -41 -132 -49 -154 -17 -47 -8 -64
-83 147 -27 76 -52 138 -56 138 -4 0 -15 -24 -26 -52 -94 -250 -105 -273 -114
-248 -25 68 -78 274 -74 286 4 11 -6 14 -42 14 -28 0 -42 -4 -34 -8z"/>
<path d="M7714 724 c13 -13 16 -42 16 -162 0 -81 -4 -163 -9 -183 l-8 -37 91
-7 c149 -11 234 22 275 107 41 85 19 210 -45 255 -50 34 -93 43 -216 43 -109
0 -118 -1 -104 -16z m237 -25 c21 -10 50 -35 66 -55 37 -49 45 -159 15 -214
-27 -49 -90 -80 -162 -80 -94 0 -94 1 -98 196 -3 130 0 169 10 176 20 13 126
-1 169 -23z"/>
<path d="M8230 720 c18 -34 10 -358 -10 -370 -11 -7 1 -10 38 -10 49 0 52 1
38 16 -12 11 -16 35 -16 85 l0 69 43 0 c42 0 45 -2 91 -65 60 -83 89 -105 135
-105 l36 0 -31 19 c-18 11 -57 51 -88 90 l-57 70 30 42 c41 56 43 114 5 150
-23 21 -36 24 -126 27 l-100 4 12 -22z m168 -24 c21 -20 26 -35 26 -75 0 -71
-22 -93 -88 -89 l-51 3 -3 84 c-2 46 0 91 3 99 9 23 83 9 113 -22z"/>
<path d="M8648 728 c8 -8 12 -64 12 -188 0 -124 -4 -180 -12 -188 -9 -9 13
-12 100 -12 90 0 112 3 112 14 0 8 3 23 6 33 5 13 2 12 -11 -5 -15 -20 -24
-23 -78 -20 l-62 3 -3 88 -3 87 56 0 c48 0 57 -3 65 -22 8 -20 9 -19 9 12 l1
35 -65 -3 -65 -4 0 81 0 81 53 0 c55 0 71 -6 80 -30 3 -8 6 0 6 18 l1 32 -107
0 c-83 0 -104 -3 -95 -12z"/>
<path d="M9648 733 c9 -3 12 -52 12 -193 0 -141 -3 -190 -12 -193 -7 -3 11 -6
40 -6 49 -1 52 0 38 15 -13 13 -16 44 -16 188 0 120 4 176 12 184 9 9 1 12
-37 11 -28 0 -44 -3 -37 -6z"/>
</g>
</svg>
